<?xml version="1.0" encoding="UTF-8"?>
<svg viewBox="0 0 33 33" xmlns="http://www.w3.org/2000/svg"><path fill="transparent" d="M0,0 h33v33H0z" shape-rendering="crispEdges"></path><path fill="#000000" d="M0 0h7v1H0zM14 0h1v1H14zM16 0h2v1H16zM19 0h1v1H19zM23 0h1v1H23zM26,0 h7v1H26zM0 1h1v1H0zM6 1h1v1H6zM12 1h1v1H12zM14 1h2v1H14zM18 1h1v1H18zM21 1h1v1H21zM26 1h1v1H26zM32,1 h1v1H32zM0 2h1v1H0zM2 2h3v1H2zM6 2h1v1H6zM8 2h2v1H8zM12 2h1v1H12zM14 2h1v1H14zM16 2h1v1H16zM18 2h5v1H18zM26 2h1v1H26zM28 2h3v1H28zM32,2 h1v1H32zM0 3h1v1H0zM2 3h3v1H2zM6 3h1v1H6zM8 3h1v1H8zM10 3h1v1H10zM13 3h1v1H13zM15 3h3v1H15zM20 3h1v1H20zM22 3h2v1H22zM26 3h1v1H26zM28 3h3v1H28zM32,3 h1v1H32zM0 4h1v1H0zM2 4h3v1H2zM6 4h1v1H6zM8 4h3v1H8zM14 4h1v1H14zM19 4h1v1H19zM21 4h1v1H21zM23 4h2v1H23zM26 4h1v1H26zM28 4h3v1H28zM32,4 h1v1H32zM0 5h1v1H0zM6 5h1v1H6zM8 5h1v1H8zM10 5h1v1H10zM15 5h1v1H15zM20 5h3v1H20zM26 5h1v1H26zM32,5 h1v1H32zM0 6h7v1H0zM8 6h1v1H8zM10 6h1v1H10zM12 6h1v1H12zM14 6h1v1H14zM16 6h1v1H16zM18 6h1v1H18zM20 6h1v1H20zM22 6h1v1H22zM24 6h1v1H24zM26,6 h7v1H26zM8 7h5v1H8zM18 7h1v1H18zM21 7h4v1H21zM0 8h1v1H0zM2 8h5v1H2zM12 8h3v1H12zM17 8h3v1H17zM24 8h1v1H24zM26 8h5v1H26zM2 9h2v1H2zM7 9h2v1H7zM12 9h3v1H12zM16 9h1v1H16zM19 9h5v1H19zM25 9h2v1H25zM30,9 h3v1H30zM1 10h4v1H1zM6 10h1v1H6zM8 10h1v1H8zM10 10h2v1H10zM15 10h1v1H15zM17 10h2v1H17zM20 10h1v1H20zM26 10h4v1H26zM1 11h1v1H1zM4 11h2v1H4zM8 11h2v1H8zM11 11h1v1H11zM15 11h1v1H15zM19 11h1v1H19zM21 11h5v1H21zM30 11h1v1H30zM32,11 h1v1H32zM2 12h1v1H2zM6 12h1v1H6zM9 12h3v1H9zM15 12h1v1H15zM17 12h4v1H17zM25 12h1v1H25zM28 12h2v1H28zM31 12h1v1H31zM0 13h1v1H0zM8 13h3v1H8zM12 13h1v1H12zM16 13h2v1H16zM19 13h6v1H19zM26 13h2v1H26zM32,13 h1v1H32zM0 14h2v1H0zM5 14h4v1H5zM10 14h1v1H10zM14 14h2v1H14zM18 14h1v1H18zM24 14h1v1H24zM26 14h1v1H26zM29 14h3v1H29zM0 15h3v1H0zM8 15h1v1H8zM11 15h1v1H11zM13 15h1v1H13zM15 15h2v1H15zM18 15h4v1H18zM24 15h1v1H24zM27 15h1v1H27zM29 15h2v1H29zM32,15 h1v1H32zM0 16h1v1H0zM2 16h2v1H2zM5 16h2v1H5zM11 16h2v1H11zM16 16h3v1H16zM23 16h1v1H23zM25 16h1v1H25zM28 16h1v1H28zM0 17h1v1H0zM2 17h1v1H2zM4 17h2v1H4zM7 17h1v1H7zM9 17h2v1H9zM12 17h2v1H12zM17 17h1v1H17zM19 17h2v1H19zM22 17h6v1H22zM30 17h1v1H30zM32,17 h1v1H32zM1 18h1v1H1zM5 18h2v1H5zM10 18h1v1H10zM12 18h5v1H12zM18 18h1v1H18zM21 18h1v1H21zM24 18h2v1H24zM27 18h5v1H27zM0 19h4v1H0zM5 19h1v1H5zM7 19h1v1H7zM9 19h6v1H9zM19 19h1v1H19zM21 19h3v1H21zM26 19h1v1H26zM29 19h3v1H29zM0 20h1v1H0zM4 20h1v1H4zM6 20h1v1H6zM13 20h1v1H13zM15 20h1v1H15zM17 20h1v1H17zM22 20h4v1H22zM27 20h3v1H27zM0 21h2v1H0zM5 21h1v1H5zM8 21h1v1H8zM10 21h1v1H10zM16 21h1v1H16zM19 21h5v1H19zM25 21h2v1H25zM29 21h2v1H29zM32,21 h1v1H32zM0 22h1v1H0zM2 22h3v1H2zM6 22h2v1H6zM11 22h1v1H11zM13 22h1v1H13zM15 22h1v1H15zM20 22h2v1H20zM24 22h2v1H24zM28 22h2v1H28zM31 22h1v1H31zM0 23h1v1H0zM2 23h1v1H2zM4 23h2v1H4zM8 23h3v1H8zM12 23h1v1H12zM14 23h3v1H14zM18 23h2v1H18zM21 23h1v1H21zM27 23h1v1H27zM30 23h1v1H30zM32,23 h1v1H32zM0 24h1v1H0zM2 24h3v1H2zM6 24h1v1H6zM9 24h1v1H9zM11 24h2v1H11zM16 24h2v1H16zM20 24h1v1H20zM24 24h6v1H24zM31,24 h2v1H31zM8 25h2v1H8zM14 25h1v1H14zM18 25h2v1H18zM21 25h2v1H21zM24 25h1v1H24zM28 25h1v1H28zM30,25 h3v1H30zM0 26h7v1H0zM9 26h1v1H9zM14 26h2v1H14zM17 26h2v1H17zM21 26h1v1H21zM23 26h2v1H23zM26 26h1v1H26zM28 26h1v1H28zM30 26h2v1H30zM0 27h1v1H0zM6 27h1v1H6zM8 27h3v1H8zM12 27h3v1H12zM19 27h3v1H19zM23 27h2v1H23zM28 27h4v1H28zM0 28h1v1H0zM2 28h3v1H2zM6 28h1v1H6zM8 28h1v1H8zM11 28h3v1H11zM17 28h1v1H17zM19 28h2v1H19zM22 28h1v1H22zM24 28h5v1H24zM31 28h1v1H31zM0 29h1v1H0zM2 29h3v1H2zM6 29h1v1H6zM8 29h3v1H8zM12 29h1v1H12zM16 29h1v1H16zM18 29h5v1H18zM25 29h1v1H25zM27,29 h6v1H27zM0 30h1v1H0zM2 30h3v1H2zM6 30h1v1H6zM8 30h2v1H8zM12 30h1v1H12zM15 30h4v1H15zM20 30h2v1H20zM25 30h2v1H25zM30 30h1v1H30zM0 31h1v1H0zM6 31h1v1H6zM10 31h1v1H10zM12 31h1v1H12zM14 31h2v1H14zM19 31h1v1H19zM21 31h1v1H21zM23 31h1v1H23zM29 31h2v1H29zM0 32h7v1H0zM8 32h2v1H8zM11 32h3v1H11zM15 32h1v1H15zM17 32h1v1H17zM22 32h1v1H22zM24 32h1v1H24zM26 32h1v1H26zM28 32h1v1H28zM31 32h1v1H31z" shape-rendering="crispEdges"></path></svg>
