<svg fill="#fff" stroke="#fff" class="svg-icon" width="1024" height="877.714" xmlns="http://www.w3.org/2000/svg"><path d="M904 259.429q0 57.714-40.857 98.571t-98.572 40.857q-57.714 0-98.571-40.857t-40.857-98.571q0-57.715 40.857-98.572T764.571 120q57.715 0 98.572 40.857T904 259.43Zm-440 424q0-59.429-41.714-101.143-41.715-41.715-101.143-41.715-15.429 0-30.857 3.429l59.428 24q44 17.714 62.572 60.857 18.571 43.143.857 86.572-17.714 44-61.143 62.285-43.429 18.286-86.857.572-12-4.572-35.429-14-23.428-9.429-34.857-14 18.286 34.285 52 55.143 33.714 20.857 74.286 20.857 59.428 0 101.143-41.715Q464 742.857 464 683.43ZM938.286 260q0-72-51.143-123.143T764 85.714q-72.571 0-123.714 51.143T589.143 260q0 72.571 51.143 123.429Q691.429 434.286 764 434.286q72 0 123.143-50.857Q938.286 332.57 938.286 260Zm85.714 0q0 108-76.286 184Q871.43 520 764 520L514.286 702.286Q507.429 776 452 826.857t-130.857 50.857q-69.143 0-122.286-43.428-53.143-43.429-67.428-109.715L0 672V426.857l222.286 89.714q45.143-27.428 98.857-27.428 7.428 0 20 1.143l162.286-232.572q1.142-106.857 77.428-182.285Q657.143 0 764 0q107.429 0 183.714 76.286Q1024 152.57 1024 260Z"/></svg>